<svg width="77" height="76" viewBox="0 0 77 76" fill="none" xmlns="http://www.w3.org/2000/svg">
<rect x="0.793091" width="76" height="76" rx="38" fill="#FF5959"/>
<path fill-rule="evenodd" clip-rule="evenodd" d="M26.4459 46.4931C26.4459 48.6218 28.1714 50.3473 30.3 50.3473H48.2861C50.4148 50.3473 52.1403 48.6218 52.1403 46.4931V28.507C52.1403 26.3784 50.4148 24.6528 48.2861 24.6528H30.3C28.1714 24.6528 26.4459 26.3784 26.4459 28.507V46.4931ZM49.5709 46.4931C49.5709 47.2027 48.9957 47.7778 48.2861 47.7778H30.3C29.5905 47.7778 29.0153 47.2027 29.0153 46.4931V28.507C29.0153 27.7975 29.5905 27.2223 30.3 27.2223H36.7236V37.5143L39.8005 37.5144L41.8627 34.7561L43.9246 37.5144H47.0015L47.0014 27.2223H48.2861C48.9957 27.2223 49.5709 27.7975 49.5709 28.507V46.4931ZM39.2931 27.2223H44.432V34.0772L41.8627 30.6402L39.2931 34.0774V27.2223Z" fill="#2D2D2D"/>
<mask id="mask0_1012_50" style="mask-type:alpha" maskUnits="userSpaceOnUse" x="26" y="24" width="27" height="27">
<path fill-rule="evenodd" clip-rule="evenodd" d="M26.4459 46.4931C26.4459 48.6218 28.1714 50.3473 30.3 50.3473H48.2861C50.4148 50.3473 52.1403 48.6218 52.1403 46.4931V28.507C52.1403 26.3784 50.4148 24.6528 48.2861 24.6528H30.3C28.1714 24.6528 26.4459 26.3784 26.4459 28.507V46.4931ZM49.5709 46.4931C49.5709 47.2027 48.9957 47.7778 48.2861 47.7778H30.3C29.5905 47.7778 29.0153 47.2027 29.0153 46.4931V28.507C29.0153 27.7975 29.5905 27.2223 30.3 27.2223H36.7236V37.5143L39.8005 37.5144L41.8627 34.7561L43.9246 37.5144H47.0015L47.0014 27.2223H48.2861C48.9957 27.2223 49.5709 27.7975 49.5709 28.507V46.4931ZM39.2931 27.2223H44.432V34.0772L41.8627 30.6402L39.2931 34.0774V27.2223Z" fill="white"/>
</mask>
<g mask="url(#mask0_1012_50)">
</g>
</svg>
