<svg width="77" height="76" viewBox="0 0 77 76" fill="none" xmlns="http://www.w3.org/2000/svg">
<rect x="0.586182" width="76" height="76" rx="38" fill="#70CE88"/>
<path fill-rule="evenodd" clip-rule="evenodd" d="M43.7117 22.0833H30.7784C29.4066 22.0833 28.2946 23.2607 28.2946 24.7132V48.3823C28.2946 49.8347 29.4066 51.0122 30.7784 51.0122H48.1649C49.5367 51.0122 50.6487 49.8347 50.6487 48.3823V29.4283L43.7117 22.0833ZM30.7784 24.7132H40.7135V29.973C40.7135 31.4254 41.8256 32.6029 43.1973 32.6029H48.1649V48.3823H30.7784V24.7132ZM43.1973 29.973V25.2578L47.6505 29.973H43.1973ZM43.5611 35.6179L38.2297 41.2628L35.3822 38.2478L33.6259 40.1074L38.2297 44.9821L45.3174 37.4775L43.5611 35.6179Z" fill="#262626"/>
</svg>
