<svg width="76" height="76" viewBox="0 0 76 76" fill="none" xmlns="http://www.w3.org/2000/svg">
<rect width="76" height="76" rx="38" fill="#5C96FF"/>
<path fill-rule="evenodd" clip-rule="evenodd" d="M41.0962 24.3869L50.0625 33.3532V51.7423H41.0694V44.0339C41.0694 42.6148 39.9191 41.4645 38.5 41.4645C37.0809 41.4645 35.9306 42.6148 35.9306 44.0339V51.7423H26.9375V33.095L35.6456 24.3869C37.1507 22.8818 39.591 22.8818 41.0962 24.3869ZM29.5069 34.1593L37.4625 26.2038C37.9641 25.7021 38.7776 25.7021 39.2793 26.2038L47.4931 34.4175V49.1728H43.6389V44.0339C43.6389 41.1959 41.3381 38.895 38.5 38.895C35.6619 38.895 33.3611 41.1959 33.3611 44.0339V49.1728H29.5069V34.1593Z" fill="#2D2D2D"/>
<mask id="mask0_1012_71" style="mask-type:alpha" maskUnits="userSpaceOnUse" x="26" y="23" width="25" height="29">
<path fill-rule="evenodd" clip-rule="evenodd" d="M41.0962 24.3869L50.0625 33.3532V51.7423H41.0694V44.0339C41.0694 42.6148 39.9191 41.4645 38.5 41.4645C37.0809 41.4645 35.9306 42.6148 35.9306 44.0339V51.7423H26.9375V33.095L35.6456 24.3869C37.1507 22.8818 39.591 22.8818 41.0962 24.3869ZM29.5069 34.1593L37.4625 26.2038C37.9641 25.7021 38.7776 25.7021 39.2793 26.2038L47.4931 34.4175V49.1728H43.6389V44.0339C43.6389 41.1959 41.3381 38.895 38.5 38.895C35.6619 38.895 33.3611 41.1959 33.3611 44.0339V49.1728H29.5069V34.1593Z" fill="white"/>
</mask>
<g mask="url(#mask0_1012_71)">
</g>
</svg>
