<svg width="30" height="30" viewBox="0 0 30 30" fill="none" xmlns="http://www.w3.org/2000/svg">
<path d="M26.25 11.25H25V7.5C25 3.36375 20.515 0 15 0C9.485 0 5 3.36375 5 7.5V11.25H3.75C1.68333 11.25 0 12.5112 0 14.0625V27.1875C0 28.7388 1.68333 30 3.75 30H26.25C28.3167 30 30 28.7388 30 27.1875V14.0625C30 12.5112 28.3167 11.25 26.25 11.25ZM8.33333 7.5C8.33333 4.7425 11.3233 2.5 15 2.5C18.6767 2.5 21.6667 4.7425 21.6667 7.5V11.25H8.33333V7.5ZM16.6667 20.9025V23.75C16.6667 24.44 15.9217 25 15 25C14.0783 25 13.3333 24.44 13.3333 23.75V20.9025C12.3417 20.4688 11.6667 19.6712 11.6667 18.75C11.6667 17.3713 13.1617 16.25 15 16.25C16.8383 16.25 18.3333 17.3713 18.3333 18.75C18.3333 19.6712 17.6583 20.4688 16.6667 20.9025Z" fill="black" fill-opacity="0.5"/>
</svg>
