<svg width="49" height="36" viewBox="0 0 49 36" fill="none" xmlns="http://www.w3.org/2000/svg">
<path d="M29.6573 12.343C29.2672 11.953 28.6332 11.953 28.2432 12.343C27.8532 12.7331 27.8532 13.3691 28.2432 13.7571C29.3753 14.8892 30.0012 16.3953 30.0012 17.9993C30.0012 21.3074 27.3091 23.9995 24.001 23.9995C22.397 23.9995 20.8909 23.3755 19.7588 22.2415C19.3688 21.8515 18.7348 21.8515 18.3448 22.2415C17.9547 22.6295 17.9547 23.2655 18.3448 23.6556C19.8528 25.1676 21.8629 25.9997 24.001 25.9997C28.4132 25.9997 32.0013 22.4115 32.0013 17.9994C32.0013 15.8612 31.1693 13.8511 29.6573 12.343Z" fill="black" fill-opacity="0.5"/>
<path d="M25.3953 10.137C24.9412 10.0571 24.4772 9.99902 24.0013 9.99902C19.5891 9.99902 16.001 13.5872 16.001 17.9993C16.001 18.4753 16.059 18.9394 16.141 19.3933C16.2269 19.8774 16.649 20.2194 17.123 20.2194C17.1811 20.2194 17.239 20.2154 17.299 20.2034C17.841 20.1074 18.205 19.5873 18.109 19.0453C18.0471 18.7053 18.001 18.3593 18.001 17.9993C18.001 14.6912 20.6932 11.9991 24.0013 11.9991C24.3613 11.9991 24.7073 12.0451 25.0473 12.1051C25.5793 12.2131 26.1093 11.8371 26.2053 11.2951C26.3013 10.7531 25.9374 10.233 25.3953 10.137Z" fill="black" fill-opacity="0.5"/>
<path d="M47.7641 17.3535C47.5381 17.0854 42.1279 10.7712 34.6656 6.90507C34.1816 6.6511 33.5716 6.8431 33.3175 7.33512C33.0635 7.82517 33.2556 8.42913 33.7476 8.68321C39.4958 11.6593 44.0879 16.3035 45.658 17.9996C43.274 20.5817 33.8916 30.0001 24.0012 30.0001C20.6451 30.0001 17.263 29.19 13.9448 27.5899C13.4528 27.348 12.8508 27.558 12.6108 28.056C12.3688 28.552 12.5788 29.15 13.0769 29.39C16.667 31.1241 20.3431 32.0001 24.0013 32.0001C36.3238 32.0001 47.3043 19.1916 47.7663 18.6456C48.0821 18.2735 48.0802 17.7274 47.7641 17.3535Z" fill="black" fill-opacity="0.5"/>
<path d="M30.5634 5.15058C28.2873 4.38452 26.0792 3.99854 24.0011 3.99854C11.6786 3.99854 0.698132 16.8071 0.236114 17.3531C-0.0559287 17.6971 -0.0799297 18.1972 0.180143 18.5711C0.318148 18.7691 3.62428 23.4633 9.3545 27.2695C9.52448 27.3835 9.71451 27.4375 9.90652 27.4375C10.2286 27.4375 10.5466 27.2815 10.7386 26.9875C11.0446 26.5295 10.9186 25.9075 10.4585 25.6034C6.25041 22.8053 3.3703 19.4272 2.29223 18.0531C4.59435 15.553 14.0387 5.99868 24.0011 5.99868C25.8631 5.99868 27.8573 6.35072 29.9253 7.04469C30.4493 7.23266 31.0173 6.94268 31.1913 6.41663C31.3674 5.89264 31.0873 5.32665 30.5634 5.15058Z" fill="black" fill-opacity="0.5"/>
<path d="M41.7074 0.292511C41.3174 -0.0975038 40.6833 -0.0975038 40.2933 0.292511L6.29202 34.2939C5.90201 34.6839 5.90201 35.3179 6.29202 35.708C6.48806 35.9019 6.74401 36 7.00005 36C7.25609 36 7.51204 35.902 7.70611 35.708L41.7074 1.7066C42.0974 1.31658 42.0974 0.682527 41.7074 0.292511Z" fill="black" fill-opacity="0.5"/>
</svg>
